<?xml version="1.0" standalone="no"?>
<!DOCTYPE svg PUBLIC "-//W3C//DTD SVG 20010904//EN"
 "http://www.w3.org/TR/2001/REC-SVG-20010904/DTD/svg10.dtd">
<svg version="1.0" xmlns="http://www.w3.org/2000/svg"
 width="600.000000pt" height="600.000000pt" viewBox="0 0 600.000000 600.000000"
 preserveAspectRatio="xMidYMid meet">
<metadata>
Created by potrace 1.10, written by Peter Selinger 2001-2011
</metadata>
<g transform="translate(0.000000,600.000000) scale(0.100000,-0.100000)"
fill="#000000" stroke="none">
<path d="M505 5134 c-190 -41 -364 -181 -446 -360 -62 -136 -60 -62 -57 -1804
l3 -1585 27 -81 c80 -236 277 -399 524 -434 57 -8 746 -10 2504 -8 l2425 3 73
27 c200 73 344 217 409 411 l28 82 3 1619 c3 1783 7 1652 -59 1789 -35 73
-126 183 -189 229 -25 17 -75 47 -112 64 -139 68 39 64 -2640 63 -2103 -1
-2432 -3 -2493 -15z m3715 -1489 l-1165 -1165 -45 0 -45 0 -1165 1165 -1165
1165 2375 0 2375 0 -1165 -1165z m1458 -895 l-3 -1335 -23 -57 c-25 -62 -85
-125 -141 -148 l-35 -14 -808 814 -809 814 908 908 908 908 3 -277 c1 -153 1
-879 0 -1613z m-4200 -580 c-369 -371 -738 -742 -819 -823 l-147 -149 -28 15
c-36 19 -76 62 -100 107 -18 34 -19 97 -22 1675 l-2 1640 895 -895 894 -894
-671 -676z m1191 155 c154 -157 293 -290 308 -296 59 -22 75 -9 371 284 l282
282 708 -708 707 -707 -2050 0 -2050 0 715 715 c393 393 718 715 721 715 4 0
133 -128 288 -285z"/>
</g>
</svg>
